<?xml version="1.0" encoding="utf-8"?>
<!-- Generator: Adobe Illustrator 22.0.1, SVG Export Plug-In . SVG Version: 6.00 Build 0)  -->
<svg version="1.1" id="Layer_1" xmlns="http://www.w3.org/2000/svg" xmlns:xlink="http://www.w3.org/1999/xlink" x="0px" y="0px"
	 viewBox="0 0 146.2 137.7" style="enable-background:new 0 0 146.2 137.7;" xml:space="preserve">
<style type="text/css">
	.st0{fill:url(#SVGID_1_);}
	.st1{fill:url(#SVGID_2_);}
	.st2{fill:#FFFFFF;}
	.st3{fill:url(#SVGID_3_);}
	.st4{fill:#009BFF;}
	.st5{fill:url(#SVGID_4_);}
	.st6{fill:url(#SVGID_5_);}
	.st7{fill:#00B9FF;}
	.st8{fill:#006BAA;}
	.st9{fill:url(#SVGID_6_);}
	.st10{fill:url(#SVGID_7_);}
	.st11{fill:#FFD6A3;}
	.st12{fill:#501000;}
	.st13{fill:url(#SVGID_8_);}
	.st14{fill:#160000;}
	.st15{fill:url(#SVGID_9_);}
	.st16{fill:#3FFDFF;}
	.st17{fill:url(#SVGID_10_);}
	.st18{fill:url(#SVGID_11_);}
	.st19{fill:url(#SVGID_12_);}
	.st20{fill:url(#SVGID_13_);}
</style>
<g>
	<g>
		<g>
			<g>
				<g>
					<linearGradient id="SVGID_1_" gradientUnits="userSpaceOnUse" x1="75.0883" y1="132.9601" x2="74.0246" y2="110.9394">
						<stop  offset="0" style="stop-color:#FFA000"/>
						<stop  offset="1" style="stop-color:#FF4800"/>
					</linearGradient>
					<path class="st0" d="M78.7,131.5c0,0.1,0,0.2,0,0.2c0.1,0.2,0.2,0.5,0.1,0.8l-1.1,4.3c-0.2,0.6-0.8,1-1.4,0.9
						c-0.6-0.2-1-0.8-0.9-1.4l0.2-0.9l-1,1c-0.5,0.5-1.2,0.5-1.7,0c-0.5-0.5-0.5-1.2,0-1.7l1.3-1.3l-2.2,0.7
						c-0.6,0.2-1.3-0.2-1.5-0.8c-0.2-0.6,0.2-1.3,0.8-1.5l4.2-1.3c0.2-0.1,0.4-0.1,0.5,0v-16c0.9-0.1,1.7-0.2,2.5-0.3V131.5z"/>
					<linearGradient id="SVGID_2_" gradientUnits="userSpaceOnUse" x1="59.9967" y1="133.6887" x2="58.9331" y2="111.6674">
						<stop  offset="0" style="stop-color:#FFA000"/>
						<stop  offset="1" style="stop-color:#FF4800"/>
					</linearGradient>
					<path class="st1" d="M63.6,131.5c0,0.1,0,0.2,0,0.2c0.1,0.2,0.2,0.5,0.1,0.8l-1.1,4.3c-0.2,0.6-0.8,1-1.4,0.9
						c-0.6-0.2-1-0.8-0.9-1.4l0.2-0.9l-1,1c-0.5,0.5-1.2,0.5-1.7,0c-0.5-0.5-0.5-1.2,0-1.7l1.3-1.3L57,134c-0.6,0.2-1.3-0.2-1.5-0.8
						c-0.2-0.6,0.2-1.3,0.8-1.5l4.2-1.3c0.2-0.1,0.4-0.1,0.5,0v-16.5c0.8,0.2,1.7,0.3,2.5,0.4V131.5z"/>
					<path class="st2" d="M0,57.2c0-0.4,15.9-1.7,15.9-1.7L1.1,36.6l19.6,9l0.1,0.4c-1,3.2-3.1,6.8-3.4,10.2l0,0.1l0,0.2
						c-0.2,1.9-0.3,3.8-0.3,5.7c0,0.3,1.6,0.5,1.6,0.8l-0.4,1.7C18.4,64.7,0,57.7,0,57.2z"/>
					<linearGradient id="SVGID_3_" gradientUnits="userSpaceOnUse" x1="0.1551" y1="46.8099" x2="21.6632" y2="57.1337">
						<stop  offset="0" style="stop-color:#FFA000"/>
						<stop  offset="1" style="stop-color:#FF4800"/>
					</linearGradient>
					<path class="st3" d="M1,57.4l16.2-1.4l-15-18.5l18.1,8.8l0,0c-1,3.2-1.7,6.5-2.1,9.9l0,0.1l0,0.2c-0.2,1.9-0.3,3.8-0.3,5.7
						c0,0.3,0,0.6,0,0.9l0,0.3L1,57.4z"/>
					<path class="st4" d="M111.3,29.4c-0.9-1.1-1.8-2.1-2.7-3.1C109.6,27.3,110.5,28.4,111.3,29.4z"/>
					<path class="st4" d="M61.9,10.4c0.6-0.1,1.1-0.2,1.7-0.3c0,0,0,0,0,0C63,10.2,62.4,10.3,61.9,10.4z"/>
					<path class="st4" d="M119.2,43.2c-0.1-0.3-0.2-0.6-0.4-0.9C119,42.6,119.1,42.9,119.2,43.2z"/>
					<path class="st4" d="M118.6,41.6c-0.1-0.3-0.2-0.6-0.4-0.8C118.4,41,118.5,41.3,118.6,41.6z"/>
					<path class="st4" d="M117.1,38.5c-0.1-0.2-0.2-0.4-0.3-0.6C116.9,38.1,117,38.3,117.1,38.5z"/>
					<path class="st4" d="M117.9,40.1c-0.1-0.3-0.2-0.5-0.4-0.8C117.7,39.6,117.8,39.8,117.9,40.1z"/>
					<path class="st4" d="M120.8,47.9c-0.1-0.4-0.2-0.7-0.3-1.1C120.6,47.2,120.7,47.5,120.8,47.9z"/>
					<path class="st4" d="M119.8,44.7c-0.1-0.3-0.2-0.6-0.3-1C119.6,44.1,119.7,44.4,119.8,44.7z"/>
					<path class="st4" d="M120.3,46.3c-0.1-0.3-0.2-0.7-0.3-1C120.1,45.6,120.2,46,120.3,46.3z"/>
					<linearGradient id="SVGID_4_" gradientUnits="userSpaceOnUse" x1="33.0854" y1="93.109" x2="116.3225" y2="43.2097">
						<stop  offset="0" style="stop-color:#009BFF"/>
						<stop  offset="1" style="stop-color:#0072E0"/>
					</linearGradient>
					<path class="st5" d="M18.1,56.5c0-0.1,0-0.2,0-0.3c0.4-3.4,1.1-6.7,2.1-9.9c0,0,0,0,0,0c12,12.1,30.5,19.9,51.3,19.9
						c19.7,0,37.3-7,49.4-18c0,0,0,0,0,0l0,0c0,0,12.9,0.8,25.3-14.8c0,0-8,18.3-13.6,24.1c0,0,10.2,0.3,13.4-2.2
						c0,0-15.7,45-60,56.9c-2.4,0.7-4.8,1.3-7.3,1.7c-0.8,0.1-1.7,0.3-2.5,0.3c-1.9,0.2-3.9,0.3-5.9,0.3c-2.3,0-4.5-0.1-6.7-0.4
						c-0.9-0.1-1.7-0.2-2.5-0.4c-24.3-4.3-42.8-25.3-43.2-50.8c0-0.3,0-0.6,0-0.9C17.8,60.3,17.9,58.4,18.1,56.5z"/>
					<path class="st4" d="M89.7,13.4c0.5,0.2,1.1,0.4,1.6,0.7C90.8,13.9,90.3,13.6,89.7,13.4C89.7,13.4,89.7,13.4,89.7,13.4z"/>
					<path class="st4" d="M97,17c-1.1-0.7-2.3-1.3-3.4-1.9C94.8,15.7,95.9,16.3,97,17z"/>
					<linearGradient id="SVGID_5_" gradientUnits="userSpaceOnUse" x1="51.0563" y1="71.5871" x2="117.3019" y2="-18.748">
						<stop  offset="5.494510e-03" style="stop-color:#CCFFFF"/>
						<stop  offset="0.3297" style="stop-color:#00B9FF"/>
						<stop  offset="1" style="stop-color:#0072E0"/>
					</linearGradient>
					<path class="st6" d="M71.6,66.3c-20.8,0-39.3-7.8-51.3-19.9c0,0,0,0,0,0c0.2-0.7,0.4-1.3,0.7-2c0,0,0,0,0,0
						c0.2-0.6,0.5-1.3,0.7-1.9c0,0,0-0.1,0-0.1c0.5-1.2,1.1-2.4,1.6-3.6c0,0,0-0.1,0-0.1c0.3-0.6,0.6-1.2,0.9-1.8c0,0,0,0,0-0.1
						c0.6-1.2,1.3-2.3,2.1-3.4c0,0,0.1-0.1,0.1-0.1c0.7-1.1,1.5-2.2,2.3-3.2c0,0,0,0,0.1-0.1c0.4-0.5,0.8-1,1.2-1.5
						c0,0,0.1-0.1,0.1-0.1c0.8-1,1.7-1.9,2.6-2.9c0,0,0.1-0.1,0.1-0.1c0.4-0.5,0.9-0.9,1.4-1.3c0,0,0.1-0.1,0.1-0.1
						c0.5-0.4,0.9-0.9,1.4-1.3c0,0,0,0,0.1,0c0.5-0.4,1-0.8,1.5-1.2c0.1-0.1,0.1-0.1,0.2-0.2c0.5-0.4,1-0.8,1.5-1.2c0,0,0,0,0,0
						c0.5-0.4,1-0.7,1.5-1.1c0.1,0,0.1-0.1,0.2-0.1c0.5-0.3,1-0.7,1.5-1c0.1,0,0.2-0.1,0.2-0.1c0.5-0.3,1.1-0.7,1.6-1c0,0,0,0,0,0
						c0.5-0.3,1.1-0.6,1.6-0.9c0.1-0.1,0.2-0.1,0.3-0.2c0.5-0.3,1.1-0.6,1.7-0.8c0.1,0,0.1-0.1,0.2-0.1c0.5-0.3,1.1-0.5,1.6-0.7
						c0.1,0,0.1-0.1,0.2-0.1c0.6-0.2,1.1-0.5,1.7-0.7c0.1,0,0.2-0.1,0.3-0.1c0.6-0.2,1.2-0.4,1.8-0.6c0,0,0,0,0.1,0
						c0.6-0.2,1.2-0.4,1.7-0.6c0.1,0,0.2-0.1,0.3-0.1c0.6-0.2,1.2-0.3,1.8-0.5c0.1,0,0.2-0.1,0.3-0.1c0.6-0.1,1.1-0.3,1.7-0.4
						c0.1,0,0.1,0,0.2,0c0.6-0.1,1.2-0.2,1.8-0.3c0.1,0,0.3,0,0.4-0.1c0.6-0.1,1.1-0.2,1.7-0.2c0,0,0,0,0,0c0.9-1.7,2.1-3.1,3.6-4.4
						c0.4,0.5,0.8,1,1.2,1.5c0.4,0.5,0.6,1,1.1,0.4c0.8-1.1-0.1-2.7,0-3.8c0.8,0.6,3.8,3,4.2,3.7c0.4-1,0.8-6.3,0.3-7.4
						c1.2,0.4,4,4.6,4.5,5.5C78.6,6,78.8,6.6,79.1,7c0.1-0.7,0.6-4.1,0.7-4.8c0.5,0.3,2,4.1,2.1,5.1c1.8-1.9,3.7-3.4,6.1-4.5
						c-0.2,0.3-1.7,3.9-1.7,5.9c0,0.6,0.1,1.4,0.2,2.2c1.8-1.2,4.2-2.3,6.2-1.8c-1.2,1-2.5,2.7-2.9,4.4c0,0,0,0,0,0
						c0.5,0.2,1.1,0.4,1.6,0.7c0.1,0,0.2,0.1,0.3,0.1c0.6,0.3,1.2,0.5,1.7,0.8c0.1,0,0.2,0.1,0.3,0.1c1.2,0.6,2.3,1.2,3.4,1.9
						c0.1,0,0.1,0.1,0.2,0.1c0.5,0.3,1.1,0.7,1.6,1c0.1,0,0.1,0.1,0.2,0.1c1.1,0.7,2.2,1.5,3.2,2.3c0,0,0.1,0.1,0.1,0.1
						c0.5,0.4,1,0.8,1.5,1.2c0,0,0.1,0.1,0.1,0.1c1,0.9,2,1.8,3,2.7c0,0,0.1,0.1,0.1,0.1c0.5,0.5,0.9,0.9,1.4,1.4
						c0,0,0.1,0.1,0.1,0.1c0.9,1,1.8,2,2.7,3.1c0,0,0,0,0,0c0.4,0.5,0.8,1.1,1.3,1.6c0,0,0,0,0,0c0.8,1.1,1.6,2.3,2.3,3.5
						c0,0,0,0,0,0c0.4,0.6,0.7,1.2,1.1,1.8c0,0,0,0,0,0c0.3,0.5,0.5,0.9,0.8,1.4c0.1,0.2,0.2,0.4,0.3,0.6c0.1,0.3,0.3,0.5,0.4,0.8
						c0.1,0.3,0.2,0.5,0.4,0.8c0.1,0.2,0.2,0.5,0.3,0.7c0.1,0.3,0.2,0.6,0.4,0.8c0.1,0.2,0.2,0.4,0.3,0.6c0.1,0.3,0.2,0.6,0.4,0.9
						c0.1,0.2,0.2,0.4,0.2,0.6c0.1,0.3,0.2,0.6,0.3,1c0.1,0.2,0.1,0.4,0.2,0.6c0.1,0.3,0.2,0.7,0.3,1c0.1,0.2,0.1,0.3,0.2,0.5
						c0.1,0.4,0.2,0.7,0.3,1.1c0,0.1,0.1,0.2,0.1,0.4c0,0,0,0,0,0C108.9,59.3,91.3,66.3,71.6,66.3z"/>
					<path class="st7" d="M87.9,2.7C87.9,2.7,87.9,2.7,87.9,2.7C87.9,2.7,88,2.7,87.9,2.7z"/>
				</g>
				<path class="st8" d="M32.2,41.3c4.7-13.6,19.7-20.9,33.5-16.2c13.8,4.7,21.1,19.5,16.4,33.2c-1.5,4.5-4.2,8.2-7.5,11.1
					c-6.9,6-16.7,8.3-26,5.1c-8.6-2.9-14.7-9.8-16.9-17.8C30.4,51.8,30.4,46.5,32.2,41.3z"/>
				<g>
					<linearGradient id="SVGID_6_" gradientUnits="userSpaceOnUse" x1="39.5913" y1="42.1538" x2="83.468" y2="46.8856">
						<stop  offset="0.2143" style="stop-color:#FFFFFF"/>
						<stop  offset="1" style="stop-color:#FBFBFB"/>
					</linearGradient>
					<path class="st9" d="M32,55.4c-1.4-5-1.3-10.4,0.5-15.6C37.2,26,52.3,18.6,66.1,23.4C80,28.1,87.4,43.2,82.6,57
						c-1.5,4.5-4.2,8.3-7.6,11.3c-4.4-5.2-10.6-9.5-18.2-12.1C48.1,53.2,39.3,53.1,32,55.4z"/>
					<path class="st4" d="M48.9,73.5c-8.6-3-14.7-9.9-17-18.1c7.3-2.3,16.2-2.2,24.9,0.8c7.5,2.6,13.8,6.9,18.2,12.1
						C68.2,74.4,58.3,76.7,48.9,73.5z"/>
				</g>
			</g>
			<g>
				<linearGradient id="SVGID_7_" gradientUnits="userSpaceOnUse" x1="41.898" y1="47.5839" x2="45.3393" y2="34.4639">
					<stop  offset="0" style="stop-color:#A43200"/>
					<stop  offset="1" style="stop-color:#3B0000"/>
				</linearGradient>
				<circle class="st10" cx="43.9" cy="40" r="9.8"/>
			</g>
			<g>
				<path class="st11" d="M55,22.3c13.4,0,24.8,8,28.3,21.2c0.1,0.4,1.8,0,1.7-0.4c-3.6-13.5-15.4-21.4-28.9-21.4
					C55.7,21.5,54.2,22.3,55,22.3L55,22.3z"/>
			</g>
			<path class="st12" d="M91.5,41.9c-1.3,0.7-4.3,2.3-5.4,0.6c-0.1-0.2-0.2-0.4-0.3-0.6c2.1,0.7,4.3-0.1,5.3-2.4
				c0.1-0.2-0.1-0.4-0.3-0.3c-2.5,1.4-4.4,0.5-6-1.1c1.3-0.1,2.4-0.8,3.2-2.2c0.1-0.2-0.1-0.5-0.3-0.4c-2.3,0.8-4-0.4-5.5-1.9
				c-2.7-4-6.9-7.5-10.4-9.6c-7.5-4.4-16.2-3.9-23.9-0.5c0,0,0,0.1,0,0.1c7.9-2.1,16.7-1,23.7,3.2c2.4,1.4,4.4,3.3,6.1,5.4
				c0.2,0.4,0.4,0.8,0.6,1.1c0.5,0.7,1.1,1.4,1.7,2c0.7,1.2,1.2,2.5,1.8,3.7c0,0.1,0,0.2,0,0.3c0,0.8,0.4,1.7,0.7,2.4
				c0.6,1.4,1.4,3.1,3,3.6c2.8,0.9,4.7-1.3,6.2-3.2C91.9,42,91.7,41.8,91.5,41.9z"/>
		</g>
	</g>
	<linearGradient id="SVGID_8_" gradientUnits="userSpaceOnUse" x1="121.0052" y1="110.4704" x2="57.5567" y2="83.5854">
		<stop  offset="0.2308" style="stop-color:#001F26"/>
		<stop  offset="0.6868" style="stop-color:#0072E0"/>
		<stop  offset="1" style="stop-color:#009BFF"/>
	</linearGradient>
	<path class="st13" d="M58.8,87.9c6.5,14,21.1,27.4,34.8,34.4c3.1,1.6,13.6,4.9,14.1-1.1c0.3-4.3-7.9-10.7-10.1-14.2
		c1.9,1.8,6.4,3.2,8.8,1.4c3.9-2.9-4.8-6.3-6.2-9.2c1.9-0.1,5.2,1.9,6.9,0.2c2.5-2.6-2.4-4.7-4-6.3c3.9-1.4,9.3-1.4,8.7-7
		c-0.4-4.4-4.5-5.1-8.2-5.6c-6.3-0.8-16.1,2-21.5-1.6"/>
	<path class="st14" d="M44,38c0,2.3-1.8,4.1-4.1,4.1c-2.3,0-4.1-1.8-4.1-4.1c0-2.3,1.8-4.1,4.1-4.1C42.1,33.9,44,35.8,44,38z"/>
	<path class="st2" d="M43.7,41.9c0,1.3-1.1,2.4-2.4,2.4c-1.3,0-2.4-1.1-2.4-2.4c0-1.3,1.1-2.4,2.4-2.4
		C42.7,39.5,43.7,40.6,43.7,41.9z"/>
	<path class="st2" d="M50.8,31.1c0,2.4-1.9,4.3-4.3,4.3s-4.3-1.9-4.3-4.3c0-2.4,1.9-4.3,4.3-4.3S50.8,28.8,50.8,31.1z"/>
	<linearGradient id="SVGID_9_" gradientUnits="userSpaceOnUse" x1="129.9137" y1="130.9451" x2="66.6798" y2="71.5826">
		<stop  offset="0.2308" style="stop-color:#001F26"/>
		<stop  offset="0.6868" style="stop-color:#0072E0"/>
		<stop  offset="1" style="stop-color:#009BFF"/>
	</linearGradient>
	<path class="st15" d="M57.9,87.1c6.5,14,21.1,27.4,34.8,34.4c3.1,1.6,13.6,4.9,14.1-1.1c0.3-4.3-7.9-10.7-10.2-14.2
		c1.9,1.8,6.4,3.2,8.8,1.4c3.9-2.9-4.8-6.3-6.2-9.2c1.9-0.1,5.2,1.9,6.9,0.2c2.5-2.6-2.4-4.7-4-6.3c3.9-1.4,9.3-1.4,8.7-7
		c-0.4-4.4-4.5-5.1-8.2-5.6c-6.3-0.8-16.1,2-21.5-1.6"/>
	<g>
		<path class="st16" d="M102.2,92.2c-0.1-0.2,4-0.4,7.5-3.1c3.2-3.5-0.8-7.5-0.4-7.2c0,0,0.7,0.6,1.6,1.9c0.8,1.2,1.5,4.1-0.6,5.8
			C106.2,92.8,102.1,92,102.2,92.2z"/>
	</g>
	<g>
		<path class="st16" d="M100.7,98.4c-0.2-0.3,3.1,1.3,5.4-0.2c1-1.1-0.5-2.5-1.2-3.1c-0.8-0.7-1.4-1.1-1.4-1.1c0,0,0.6,0.2,1.6,0.8
			c0.7,0.4,2.9,1.9,1.5,3.8C103.1,100.6,100.6,97.9,100.7,98.4z"/>
	</g>
	<g>
		<path class="st16" d="M98.3,106.6c0,0,0.8,0.4,2.2,0.8c1.3,0.4,3.6,0.9,4.8-0.8c1-1.5-1.8-3.1-2.5-4c-1.1-1-1.8-1.6-1.8-1.6
			c0,0,0.8,0.4,2,1.3c0.6,0.4,1.3,0.9,2,1.6c0.6,0.4,1.8,2.1,0.8,3.1c-1.7,2.2-4.4,1.3-5.5,0.8C99,107.1,98.3,106.6,98.3,106.6z"/>
	</g>
	<g>
		<path class="st16" d="M91.2,120.8c0-0.1,1.8,0.8,4.7,1.7c2.5,0.7,8.4,2.7,10.3-1.7c-0.4-4-4.4-7.5-6-9.9c-1.9-2.4-3.2-3.9-3.2-3.9
			c0,0,1.4,1.4,3.5,3.7c1.7,2.6,5.9,5,6.5,10.4c-0.8,2.7-3.9,3.4-5.9,3.2c-2.1-0.1-3.9-0.8-5.4-1.3
			C92.8,121.8,91.2,120.8,91.2,120.8z"/>
	</g>
	<g>
		<path class="st2" d="M120.8,47.9c-0.2,0.2-3.2-10.6-12.2-20.3c-8.8-9.8-19-14.3-18.9-14.2c-0.1-0.1,10.8,3.2,19.9,13.3
			C118.9,36.8,120.6,48.1,120.8,47.9z"/>
	</g>
	<g>
		<path class="st2" d="M119.7,48.9c0,0-2-2.5-3.9-6c-1.6-3.5-3.1-6.3-3.1-6.4c0,0,2.6,2.1,4.3,5.7C118.9,45.7,119.8,48.9,119.7,48.9
			z"/>
	</g>
	<g>
		<linearGradient id="SVGID_10_" gradientUnits="userSpaceOnUse" x1="78.4332" y1="59.5852" x2="116.2881" y2="59.5852">
			<stop  offset="0.2308" style="stop-color:#001F26"/>
			<stop  offset="0.6868" style="stop-color:#0072E0"/>
			<stop  offset="1" style="stop-color:#009BFF"/>
		</linearGradient>
		<path class="st17" d="M116.3,52.9c-0.2-0.4-7.3,5.8-18.1,8.9c-10.4,3.9-19.8,4.7-19.7,4.3c0.1,0.4,8.8-1.6,19.3-5.5
			C108.4,57.5,116.1,52.5,116.3,52.9z"/>
	</g>
	<g>
		<path class="st2" d="M67,71c0.2-0.5-8.6,4.5-19.2,0.3c-10.9-3.8-13.8-13.7-14-13.1c0.2-0.4,4.3,8.4,14.5,11.8
			C58.1,74.1,67.1,70.5,67,71z"/>
	</g>
	<g>
		<path class="st2" d="M51.8,14.1c0.1,0-9.5,3.6-17.8,12.5c-8.6,8.5-12,18.3-12.4,17.9c0.4,0.3,2.5-10,11.5-18.9
			C41.6,16.5,51.9,14.1,51.8,14.1z"/>
	</g>
	<g>
		<path class="st2" d="M131.3,57.7c0.1,0,3.3-4.6,6.4-10.9c3.4-6.2,7-10.6,7-10.6c0,0-2.4,5.2-5.8,11.3
			C135.8,53.8,131.4,57.8,131.3,57.7z"/>
	</g>
	<g>
		<path class="st2" d="M144.2,57.4c0.1,0-2.4,1.8-5.8,1.9c-3.5,0.6-6.2-0.8-6.1-0.9c0.1,0.2,2.6,0.2,5.9-0.4
			C141.7,57.8,144.2,57.5,144.2,57.4z"/>
	</g>
	<g>
		<linearGradient id="SVGID_11_" gradientUnits="userSpaceOnUse" x1="130.6553" y1="63.7681" x2="125.2782" y2="111.7316">
			<stop  offset="0.2308" style="stop-color:#001F26"/>
			<stop  offset="0.6868" style="stop-color:#0072E0"/>
			<stop  offset="1" style="stop-color:#009BFF"/>
		</linearGradient>
		<path class="st18" d="M143.7,58.2c1.2,0.3-3.7,10.6-12.1,21.3c-8.4,10.9-17.6,17.3-17.3,17.6c-0.3-0.3,8-7.7,16.2-18.4
			C138.9,68,144.9,58.7,143.7,58.2z"/>
	</g>
	<g>
		<path class="st2" d="M89.9,119.8c0.1-0.1-7-4.8-15.2-11.4c-8.3-6.7-12.5-14.5-12.5-14.4c0,0,5.2,6.8,13.3,13.4
			C83.7,113.8,90,119.6,89.9,119.8z"/>
	</g>
	<g>
		<linearGradient id="SVGID_12_" gradientUnits="userSpaceOnUse" x1="58.9571" y1="77.0761" x2="31.8568" y2="70.6236">
			<stop  offset="0.2308" style="stop-color:#001F26"/>
			<stop  offset="0.6868" style="stop-color:#0072E0"/>
			<stop  offset="1" style="stop-color:#009BFF"/>
		</linearGradient>
		<path class="st19" d="M66.1,76c0.1,0-6.2,3.4-14.6,2C43,76.3,39,70,38.9,70.4c0.1-0.4,5.1,4.8,12.9,6.3C59.7,78,66.1,76.1,66.1,76
			z"/>
	</g>
	<g>
		<path class="st2" d="M51,56.1c9.1,2.4,15.5,6.4,21.8,13.1c0.3,0.4,0.8-0.2,0.5-0.5C67.4,61.3,60.2,58.1,51,56.1
			C51,56.1,51,56.1,51,56.1L51,56.1z"/>
	</g>
	<g>
		<linearGradient id="SVGID_13_" gradientUnits="userSpaceOnUse" x1="15.984" y1="72.6675" x2="56.7067" y2="119.9853">
			<stop  offset="0.2308" style="stop-color:#001F26"/>
			<stop  offset="0.6868" style="stop-color:#0072E0"/>
			<stop  offset="1" style="stop-color:#009BFF"/>
		</linearGradient>
		<path class="st20" d="M57.6,113.2c0.4-0.1-15.1-1.6-26.9-15.4C19.3,84.1,18.4,69,18.4,69.3c0-0.2,2.6,14.3,13.7,27.4
			C43.2,109.9,57.9,113.1,57.6,113.2z"/>
	</g>
</g>
</svg>
