<?xml version="1.0" encoding="utf-8"?>
<!-- Generator: Adobe Illustrator 22.0.1, SVG Export Plug-In . SVG Version: 6.00 Build 0)  -->
<svg version="1.1" id="Layer_1" xmlns="http://www.w3.org/2000/svg" xmlns:xlink="http://www.w3.org/1999/xlink" x="0px" y="0px"
	 viewBox="0 0 49.5 61.2" style="enable-background:new 0 0 49.5 61.2;" xml:space="preserve">
<style type="text/css">
	.st0{fill:url(#SVGID_1_);}
	.st1{fill:url(#SVGID_2_);}
	.st2{fill:url(#SVGID_3_);}
	.st3{fill:url(#SVGID_4_);}
	.st4{fill:url(#SVGID_5_);}
	.st5{opacity:0.3;fill:url(#SVGID_6_);}
	.st6{fill:url(#SVGID_7_);}
</style>
<linearGradient id="SVGID_1_" gradientUnits="userSpaceOnUse" x1="25.0821" y1="80.9002" x2="25.0821" y2="26.444">
	<stop  offset="0" style="stop-color:#FFFFFF"/>
	<stop  offset="2.278286e-02" style="stop-color:#FCEEDD"/>
	<stop  offset="6.721234e-02" style="stop-color:#F6D0A1"/>
	<stop  offset="0.11" style="stop-color:#F1B86E"/>
	<stop  offset="0.15" style="stop-color:#EEA447"/>
	<stop  offset="0.1865" style="stop-color:#EB962B"/>
	<stop  offset="0.2184" style="stop-color:#EA8E1A"/>
	<stop  offset="0.2421" style="stop-color:#E98B14"/>
	<stop  offset="0.6044" style="stop-color:#C32B03"/>
	<stop  offset="0.6583" style="stop-color:#BF2A03"/>
	<stop  offset="0.715" style="stop-color:#B22703"/>
	<stop  offset="0.773" style="stop-color:#9D2302"/>
	<stop  offset="0.8319" style="stop-color:#801C02"/>
	<stop  offset="0.8915" style="stop-color:#5A1401"/>
	<stop  offset="0.9508" style="stop-color:#2C0A01"/>
	<stop  offset="1" style="stop-color:#000000"/>
</linearGradient>
<path class="st0" d="M28.1,55.8l5.3,5.3c0.9-0.8,1.5-2,1.5-3.3V29.1c0-2.4-1.9-4.3-4.3-4.3H19.5c-2.4,0-4.3,1.9-4.3,4.3v28.9
	c0,1.3,0.6,2.5,1.5,3.3l5.3-5.3C23.7,54.1,26.5,54.1,28.1,55.8z"/>
<linearGradient id="SVGID_2_" gradientUnits="userSpaceOnUse" x1="24.7715" y1="80.8994" x2="24.7715" y2="26.4439">
	<stop  offset="0" style="stop-color:#FFFFFF"/>
	<stop  offset="2.278286e-02" style="stop-color:#FCEEDD"/>
	<stop  offset="6.721234e-02" style="stop-color:#F6D0A1"/>
	<stop  offset="0.11" style="stop-color:#F1B86E"/>
	<stop  offset="0.15" style="stop-color:#EEA447"/>
	<stop  offset="0.1865" style="stop-color:#EB962B"/>
	<stop  offset="0.2184" style="stop-color:#EA8E1A"/>
	<stop  offset="0.2421" style="stop-color:#E98B14"/>
	<stop  offset="0.6044" style="stop-color:#C32B03"/>
	<stop  offset="0.6583" style="stop-color:#BF2A03"/>
	<stop  offset="0.715" style="stop-color:#B22703"/>
	<stop  offset="0.773" style="stop-color:#9D2302"/>
	<stop  offset="0.8319" style="stop-color:#801C02"/>
	<stop  offset="0.8915" style="stop-color:#5A1401"/>
	<stop  offset="0.9508" style="stop-color:#2C0A01"/>
	<stop  offset="1" style="stop-color:#000000"/>
</linearGradient>
<path class="st1" d="M30.4,24.7H19.2c-2.4,0-4.3,1.9-4.3,4.3v17.2c0.5,0.2,0.9,0.4,1.4,0.6l-0.6,1.9c-0.2,0.5,0.1,1.1,0.6,1.2
	c0.5,0.2,1.1-0.1,1.2-0.6l0.6-1.8c0.6,0.2,1.2,0.3,1.8,0.5l-0.3,1.9c-0.1,0.5,0.3,1,0.8,1.1c0.5,0.1,1-0.3,1.1-0.8l0.3-1.9
	c0.6,0.1,1.2,0.1,1.9,0.2v1.9c0,0.5,0.4,1,1,1c0.5,0,1-0.4,1-1v-1.9c0.4,0,0.9,0,1.3-0.1l0.3,1.9c0.1,0.5,0.6,0.9,1.1,0.8
	c0.5-0.1,0.9-0.6,0.8-1.1L29,48.1c0.6-0.1,1.1-0.2,1.7-0.4l0.6,1.8c0.2,0.5,0.7,0.8,1.2,0.7c0.5-0.2,0.8-0.7,0.7-1.2l-0.5-1.8
	c0.6-0.2,1.2-0.4,1.8-0.7l0.3,0.6v-18C34.7,26.7,32.8,24.7,30.4,24.7z"/>
<linearGradient id="SVGID_3_" gradientUnits="userSpaceOnUse" x1="24.7715" y1="-30.9237" x2="24.7715" y2="68.6102">
	<stop  offset="0" style="stop-color:#FFFFFF"/>
	<stop  offset="7.217163e-02" style="stop-color:#FFF3CA"/>
	<stop  offset="0.1697" style="stop-color:#FFE488"/>
	<stop  offset="0.2518" style="stop-color:#FFD958"/>
	<stop  offset="0.3143" style="stop-color:#FFD33A"/>
	<stop  offset="0.3497" style="stop-color:#FFD02F"/>
	<stop  offset="0.6135" style="stop-color:#FFB915"/>
	<stop  offset="0.8834" style="stop-color:#CB841F"/>
</linearGradient>
<path class="st2" d="M48.6,25.7c0.5,0,0.9-0.4,0.9-0.9c0-0.5-0.4-0.9-0.9-0.9h-1.8c0-0.4,0-0.8-0.1-1.2l1.8-0.2
	c0.5-0.1,0.9-0.5,0.8-1c-0.1-0.5-0.5-0.9-1-0.8l-1.8,0.2c-0.1-0.5-0.2-1.1-0.4-1.6l1.7-0.5c0.5-0.1,0.8-0.7,0.6-1.1
	c-0.1-0.5-0.7-0.8-1.1-0.6l-1.7,0.5c-0.2-0.6-0.4-1.1-0.7-1.7l1.6-0.8c0.5-0.2,0.6-0.8,0.4-1.2c-0.2-0.5-0.8-0.6-1.2-0.4l-1.6,0.8
	c-0.3-0.5-0.6-1-0.9-1.5l1.5-1.1c0.4-0.3,0.5-0.9,0.2-1.3c-0.3-0.4-0.9-0.5-1.3-0.2l-1.5,1.1c-0.4-0.5-0.7-0.9-1.1-1.3l1.3-1.3
	c0.4-0.4,0.4-0.9,0-1.3c-0.4-0.4-0.9-0.4-1.3,0l-1.3,1.3c-0.3-0.3-0.6-0.5-0.9-0.8l1.1-1.5c0.3-0.4,0.2-1-0.2-1.3
	c-0.4-0.3-1-0.2-1.3,0.2l-1.1,1.5c-0.4-0.3-0.9-0.6-1.4-0.9l0.9-1.7c0.2-0.4,0.1-1-0.4-1.2c-0.4-0.2-1-0.1-1.2,0.4L34.3,5
	c-0.5-0.3-1.1-0.5-1.7-0.7l0.6-1.8c0.2-0.5-0.1-1-0.6-1.2c-0.5-0.2-1,0.1-1.2,0.6l-0.6,1.8c-0.6-0.2-1.1-0.3-1.7-0.4l0.3-1.9
	c0.1-0.5-0.3-1-0.8-1.1c-0.5-0.1-1,0.3-1.1,0.8L27.4,3c-0.6-0.1-1.1-0.1-1.7-0.1v-2c0-0.5-0.4-0.9-0.9-0.9c-0.5,0-0.9,0.4-0.9,0.9v2
	c-0.4,0-0.8,0-1.2,0.1L22.4,1c-0.1-0.5-0.5-0.9-1-0.8c-0.5,0.1-0.9,0.5-0.8,1l0.3,2c-0.5,0.1-1,0.2-1.6,0.4l-0.6-1.9
	c-0.1-0.5-0.7-0.8-1.1-0.6c-0.5,0.1-0.8,0.7-0.6,1.1l0.6,1.9c-0.6,0.2-1.1,0.4-1.7,0.7L15,3c-0.2-0.5-0.8-0.6-1.2-0.4
	c-0.5,0.2-0.6,0.8-0.4,1.2l0.9,1.8c-0.5,0.3-1,0.6-1.5,0.9l-1.2-1.6c-0.3-0.4-0.9-0.5-1.3-0.2c-0.4,0.3-0.5,0.9-0.2,1.3l1.2,1.6
	c-0.5,0.4-0.9,0.7-1.3,1.1L8.6,7.3c-0.4-0.4-0.9-0.4-1.3,0c-0.4,0.4-0.4,0.9,0,1.3L8.7,10c-0.3,0.3-0.5,0.6-0.8,0.9L6.3,9.6
	C5.9,9.3,5.3,9.4,5,9.8c-0.3,0.4-0.2,1,0.2,1.3l1.6,1.2c-0.3,0.4-0.6,0.9-0.9,1.3l-1.8-0.9c-0.4-0.2-1-0.1-1.2,0.4
	c-0.2,0.4-0.1,1,0.4,1.2l1.8,0.9c-0.3,0.5-0.5,1.1-0.7,1.6l-1.9-0.6c-0.5-0.2-1,0.1-1.2,0.6c-0.2,0.5,0.1,1,0.6,1.2l1.9,0.6
	c-0.2,0.6-0.3,1.1-0.4,1.7L1.4,20c-0.5-0.1-1,0.3-1.1,0.8c-0.1,0.5,0.3,1,0.8,1.1L3,22.1c-0.1,0.6-0.1,1.1-0.1,1.7h-2
	c-0.5,0-0.9,0.4-0.9,0.9c0,0.5,0.4,0.9,0.9,0.9h2c0,0.4,0,0.8,0.1,1.2L1,27.1c-0.5,0.1-0.9,0.5-0.8,1c0.1,0.5,0.5,0.9,1,0.8l1.9-0.3
	c0.1,0.5,0.2,1,0.3,1.6l-1.9,0.6c-0.5,0.1-0.8,0.7-0.6,1.1c0.1,0.5,0.7,0.8,1.1,0.6L4,32c0.2,0.6,0.4,1.1,0.6,1.7L3,34.5
	c-0.5,0.2-0.6,0.8-0.4,1.2c0.2,0.5,0.8,0.6,1.2,0.4l1.7-0.8c0.3,0.5,0.6,1,0.9,1.5l-1.5,1.1c-0.4,0.3-0.5,0.9-0.2,1.3
	c0.3,0.4,0.9,0.5,1.3,0.2l1.5-1.1c0.4,0.5,0.7,0.9,1.1,1.3L7.3,41c-0.4,0.4-0.4,0.9,0,1.3c0.4,0.4,0.9,0.4,1.3,0L9.9,41
	c0.3,0.3,0.6,0.5,0.9,0.8l-1.1,1.5c-0.3,0.4-0.2,1,0.2,1.3c0.4,0.3,1,0.2,1.3-0.2l1.1-1.5c0.4,0.3,0.9,0.6,1.4,0.9l-0.9,1.6
	c-0.2,0.4-0.1,1,0.4,1.2c0.4,0.2,1,0.1,1.2-0.4l0.9-1.6c0.5,0.3,1.1,0.5,1.7,0.7l-0.6,1.7c-0.2,0.5,0.1,1,0.6,1.2
	c0.5,0.2,1-0.1,1.2-0.6l0.6-1.7c0.6,0.2,1.1,0.3,1.7,0.4L20,48.2c-0.1,0.5,0.3,1,0.8,1.1c0.5,0.1,1-0.3,1.1-0.8l0.3-1.8
	c0.6,0.1,1.2,0.1,1.8,0.1v1.8c0,0.5,0.4,0.9,0.9,0.9c0.5,0,0.9-0.4,0.9-0.9v-1.8c0.4,0,0.8,0,1.2-0.1l0.2,1.8c0.1,0.5,0.5,0.9,1,0.8
	c0.5-0.1,0.9-0.5,0.8-1l-0.2-1.8c0.5-0.1,1.1-0.2,1.6-0.3l0.5,1.7c0.1,0.5,0.7,0.8,1.1,0.6c0.5-0.1,0.8-0.7,0.6-1.1L32,45.6
	c0.6-0.2,1.1-0.4,1.7-0.7l0.8,1.6c0.2,0.5,0.8,0.6,1.2,0.4c0.5-0.2,0.6-0.8,0.4-1.2l-0.8-1.6c0.5-0.3,1-0.6,1.5-0.9l1,1.4
	c0.3,0.4,0.9,0.5,1.3,0.2c0.4-0.3,0.5-0.9,0.2-1.3l-1-1.4c0.5-0.4,0.9-0.7,1.3-1.1l1.2,1.2c0.4,0.4,0.9,0.4,1.3,0
	c0.4-0.4,0.4-0.9,0-1.3L41,39.7c0.3-0.3,0.6-0.6,0.8-0.9l1.4,1c0.4,0.3,1,0.2,1.3-0.2c0.3-0.4,0.2-1-0.2-1.3l-1.4-1.1
	c0.3-0.4,0.6-0.9,0.9-1.4l1.6,0.8c0.4,0.2,1,0.1,1.2-0.4c0.2-0.4,0.1-1-0.4-1.2l-1.6-0.8c0.3-0.5,0.5-1.1,0.7-1.7l1.7,0.6
	c0.5,0.2,1-0.1,1.2-0.6c0.2-0.5-0.1-1-0.6-1.2L46,31c0.2-0.6,0.3-1.1,0.4-1.7l1.7,0.3c0.5,0.1,1-0.3,1.1-0.8c0.1-0.5-0.3-1-0.8-1.1
	l-1.8-0.3c0.1-0.6,0.1-1.2,0.1-1.8H48.6z"/>
<linearGradient id="SVGID_4_" gradientUnits="userSpaceOnUse" x1="24.7715" y1="50.0381" x2="24.7715" y2="4.0567">
	<stop  offset="0" style="stop-color:#FFFFFF"/>
	<stop  offset="7.217163e-02" style="stop-color:#FFF3CA"/>
	<stop  offset="0.1697" style="stop-color:#FFE488"/>
	<stop  offset="0.2518" style="stop-color:#FFD958"/>
	<stop  offset="0.3143" style="stop-color:#FFD33A"/>
	<stop  offset="0.3497" style="stop-color:#FFD02F"/>
	<stop  offset="0.6135" style="stop-color:#FFB915"/>
	<stop  offset="0.8834" style="stop-color:#CB841F"/>
</linearGradient>
<circle class="st3" cx="24.8" cy="24.9" r="18.5"/>
<linearGradient id="SVGID_5_" gradientUnits="userSpaceOnUse" x1="24.7715" y1="-0.8113" x2="24.7715" y2="55.0878">
	<stop  offset="0" style="stop-color:#FFFFFF"/>
	<stop  offset="7.217163e-02" style="stop-color:#FFF3CA"/>
	<stop  offset="0.1697" style="stop-color:#FFE488"/>
	<stop  offset="0.2518" style="stop-color:#FFD958"/>
	<stop  offset="0.3143" style="stop-color:#FFD33A"/>
	<stop  offset="0.3497" style="stop-color:#FFD02F"/>
	<stop  offset="0.6135" style="stop-color:#FFB915"/>
	<stop  offset="0.8834" style="stop-color:#CB841F"/>
</linearGradient>
<path class="st4" d="M42,24.9C42,34.3,34.3,42,24.8,42c-9.5,0-17.2-7.7-17.2-17.2c0-9.5,7.7-17.2,17.2-17.2
	C34.3,7.7,42,15.4,42,24.9z"/>
<linearGradient id="SVGID_6_" gradientUnits="userSpaceOnUse" x1="24.7715" y1="8.4391" x2="24.7715" y2="27.0638">
	<stop  offset="0" style="stop-color:#FFFFFF"/>
	<stop  offset="1" style="stop-color:#000000"/>
</linearGradient>
<path class="st5" d="M41.3,24.9c0,9.1-7.4,1.1-16.5,1.1S8.2,34,8.2,24.9c0-9.1,7.4-16.5,16.5-16.5S41.3,15.7,41.3,24.9z"/>
<radialGradient id="SVGID_7_" cx="25.0253" cy="9.5098" r="21.0238" gradientUnits="userSpaceOnUse">
	<stop  offset="0" style="stop-color:#FFFFFF"/>
	<stop  offset="0.2064" style="stop-color:#FFF3CA"/>
	<stop  offset="0.4853" style="stop-color:#FFE488"/>
	<stop  offset="0.7202" style="stop-color:#FFD958"/>
	<stop  offset="0.8988" style="stop-color:#FFD33A"/>
	<stop  offset="1" style="stop-color:#FFD02F"/>
</radialGradient>
<path class="st6" d="M41.3,24.9c0-7.4-7.4-15.4-16.5-15.4S8.2,17.6,8.2,24.9c0-9.1,7.4-16.5,16.5-16.5S41.3,15.7,41.3,24.9z"/>
</svg>
